# Blender 3.6.2
# www.blender.org
mtllib single_fence.mtl
o Cube
v 0.177000 -1.000000 -0.550000
v 0.177000 -1.000000 0.550000
v -0.177000 -1.000000 -0.550000
v -0.177000 -1.000000 0.550000
v 0.177000 2.818374 -0.550000
v -0.177000 2.818374 -0.550000
v 0.177000 2.180133 -0.550000
v -0.177000 2.180133 -0.550000
v 0.177000 0.590067 -0.550000
v -0.177000 0.590067 -0.550000
v 0.177000 3.904850 -0.550000
v 0.177000 4.298461 -0.333513
v 0.177000 4.298459 0.333513
v 0.177000 3.904846 0.550000
v -0.177000 4.298461 -0.333513
v -0.177000 3.904850 -0.550000
v -0.177000 3.904846 0.550000
v -0.177000 4.298459 0.333513
vn -1.0000 -0.0000 -0.0000
vn -0.0000 -1.0000 -0.0000
vn -0.0000 -0.0000 -1.0000
vn -0.0000 -0.0000 1.0000
vn 1.0000 -0.0000 -0.0000
vn -0.0000 0.4819 0.8762
vn -0.0000 0.4819 -0.8762
vn -0.0000 1.0000 -0.0000
vt 0.375000 0.000000
vt 0.606428 0.000000
vt 0.625000 0.049201
vt 0.625000 0.200799
vt 0.611376 0.250000
vt 0.573769 0.250000
vt 0.540545 0.250000
vt 0.457772 0.250000
vt 0.375000 0.250000
vt 0.125000 0.500000
vt 0.375000 0.500000
vt 0.375000 0.750000
vt 0.125000 0.750000
vt 0.611376 0.500000
vt 0.573769 0.500000
vt 0.540545 0.500000
vt 0.457772 0.500000
vt 0.606428 0.750000
vt 0.606428 1.000000
vt 0.375000 1.000000
vt 0.625000 0.549201
vt 0.625000 0.700799
vt 0.606428 0.750000
vt 0.625000 0.750000
vt 0.625000 1.000000
vt 0.625000 0.250000
vt 0.625000 0.500000
vt 0.875000 0.549201
vt 0.875000 0.700799
s 0
usemtl Material
f 4/1/1 17/2/1 18/3/1 15/4/1 16/5/1 6/6/1 8/7/1 10/8/1 3/9/1
f 3/10/2 1/11/2 2/12/2 4/13/2
f 3/9/3 10/8/3 8/7/3 6/6/3 16/5/3 11/14/3 5/15/3 7/16/3 9/17/3 1/11/3
f 2/12/4 14/18/4 17/19/4 4/20/4
f 1/11/5 9/17/5 7/16/5 5/15/5 11/14/5 12/21/5 13/22/5 14/23/5 2/12/5
f 13/24/6 18/25/6 17/19/6 14/18/6
f 15/26/7 12/27/7 11/14/7 16/5/7
f 15/28/8 18/29/8 13/22/8 12/21/8
